<?xml version="1.0" encoding="UTF-8" standalone="no"?>
<!-- Created with Inkscape (http://www.inkscape.org/) -->
<svg
   xmlns:dc="http://purl.org/dc/elements/1.1/"
   xmlns:cc="http://creativecommons.org/ns#"
   xmlns:rdf="http://www.w3.org/1999/02/22-rdf-syntax-ns#"
   xmlns:svg="http://www.w3.org/2000/svg"
   xmlns="http://www.w3.org/2000/svg"
   xmlns:xlink="http://www.w3.org/1999/xlink"
   xmlns:sodipodi="http://sodipodi.sourceforge.net/DTD/sodipodi-0.dtd"
   xmlns:inkscape="http://www.inkscape.org/namespaces/inkscape"
   width="744.09448819"
   height="1052.3622047"
   id="svg2"
   sodipodi:version="0.32"
   inkscape:version="0.46"
   sodipodi:docname="label.svg"
   inkscape:output_extension="org.inkscape.output.svg.inkscape">
  <defs
     id="defs4">
    <linearGradient
       id="linearGradient2384">
      <stop
         style="stop-color:#5b7f62;stop-opacity:1;"
         offset="0"
         id="stop2386" />
      <stop
         style="stop-color:#66694f;stop-opacity:1;"
         offset="1"
         id="stop2388" />
    </linearGradient>
    <inkscape:perspective
       sodipodi:type="inkscape:persp3d"
       inkscape:vp_x="0 : 526.18109 : 1"
       inkscape:vp_y="0 : 1000 : 0"
       inkscape:vp_z="744.09448 : 526.18109 : 1"
       inkscape:persp3d-origin="372.04724 : 350.78739 : 1"
       id="perspective10" />
    <linearGradient
       inkscape:collect="always"
       xlink:href="#linearGradient2384"
       id="linearGradient2390"
       x1="359"
       y1="372.86218"
       x2="387"
       y2="611.86218"
       gradientUnits="userSpaceOnUse"
       gradientTransform="translate(-18,0)" />
  </defs>
  <sodipodi:namedview
     id="base"
     pagecolor="#ffffff"
     bordercolor="#666666"
     borderopacity="1.0"
     gridtolerance="10000"
     guidetolerance="10"
     objecttolerance="10"
     inkscape:pageopacity="0.0"
     inkscape:pageshadow="2"
     inkscape:zoom="1"
     inkscape:cx="375"
     inkscape:cy="520"
     inkscape:document-units="px"
     inkscape:current-layer="layer1"
     showgrid="false"
     inkscape:window-width="1680"
     inkscape:window-height="978"
     inkscape:window-x="0"
     inkscape:window-y="25" />
  <metadata
     id="metadata7">
    <rdf:RDF>
      <cc:Work
         rdf:about="">
        <dc:format>image/svg+xml</dc:format>
        <dc:type
           rdf:resource="http://purl.org/dc/dcmitype/StillImage" />
      </cc:Work>
    </rdf:RDF>
  </metadata>
  <g
     inkscape:label="Layer 1"
     inkscape:groupmode="layer"
     id="layer1">
    <rect
       style="fill:url(#linearGradient2390);fill-opacity:1;stroke:#000000;stroke-width:1.05335176;stroke-linecap:butt;stroke-opacity:1"
       id="rect2407"
       width="514.94666"
       height="237.94666"
       x="92.026672"
       y="373.38885"
       inkscape:export-filename="/home/lethe/Desktop/game_parts/spam/label.png"
       inkscape:export-xdpi="300"
       inkscape:export-ydpi="300" />
    <path
       style="fill:#ff9955;stroke:#d38d5f;stroke-width:1.05299997;stroke-linecap:butt;stroke-miterlimit:4;stroke-dasharray:none;stroke-opacity:1"
       id="path2394"
       d="M 169.88464,451.14855 C 166.07504,450.00647 162.61952,448.00231 159.27474,445.89739 C 155.87624,443.61809 154.67125,441.61343 154.16431,437.59448 C 153.77481,434.13125 154.95571,431.19579 158.03316,429.33815 C 163.06495,426.30083 168.20944,423.45426 173.29758,420.51232 C 181.12588,416.58823 189.49515,413.94051 198.01201,412.00834 C 206.61882,410.11103 215.35604,408.89714 224.12613,408.08339 C 232.50073,407.54986 240.91103,406.99733 249.30615,407.22788 C 255.28893,407.77585 260.75669,409.94874 265.81848,413.08188 C 271.77435,417.06325 275.83224,422.85031 279.61049,428.79655 C 282.90251,434.36455 286.1583,439.94269 289.74321,445.33046 C 291.34561,447.49367 292.76111,450.0314 295.20707,451.37386 C 296.51872,452.09376 297.31852,452.15461 298.79311,452.48691 C 306.19557,453.49219 313.69246,452.15605 320.99598,450.96454 C 329.34801,449.35937 337.21872,446.04774 345.11931,443.00479 C 349.57398,441.30522 354.09896,439.833 358.81941,439.12279 C 362.35567,438.57275 365.66582,439.84301 369.02314,440.79158 C 373.76441,442.31382 378.65119,443.29639 383.46628,444.53905 C 386.43387,445.46518 389.431,445.93102 392.52985,445.81666 L 380.64312,454.47592 C 377.45608,454.44515 374.40232,453.86718 371.36817,452.87032 C 366.55642,451.62857 361.72017,450.47671 356.94799,449.08579 C 353.65379,448.23199 350.41232,447.27532 346.99446,448.00553 C 342.44645,448.78627 338.07896,450.29015 333.76638,451.90564 C 325.85419,454.92283 317.93996,458.13095 309.54907,459.5617 C 302.03494,460.73847 294.28266,462.12026 286.70021,460.80671 C 285.97657,460.59176 285.23116,460.43977 284.52928,460.16186 C 281.1015,458.80459 279.11504,455.61981 277.14652,452.70035 C 273.62204,447.26781 270.44249,441.63403 267.11455,436.08258 C 263.44102,430.3104 259.49801,424.71155 253.60483,420.98377 C 248.64709,418.10081 243.32029,416.09466 237.53932,415.7317 C 229.23356,415.54106 220.91768,415.92973 212.63966,416.6018 C 203.89226,417.5079 195.17668,418.75565 186.59524,420.70929 C 178.09378,422.74377 169.73008,425.48267 162.00452,429.6351 C 185.51435,415.8148 169.9912,424.31953 168.22733,426.44584 C 167.22236,427.65731 167.14446,429.27612 167.23632,430.7565 C 167.56519,434.54712 168.49228,435.79209 171.67169,437.92342 C 174.94898,440.03789 178.40485,441.86207 182.20148,442.85811 L 169.88464,451.14855 z" />
    <path
       style="fill:#ff9955;stroke:#d38d5f;stroke-width:1.05299997;stroke-linecap:butt;stroke-miterlimit:4;stroke-dasharray:none;stroke-opacity:1"
       id="path2396"
       d="M 195.0588,466.47709 C 199.59796,464.50226 208.46507,460.13484 188.81937,470.37007 C 187.99818,470.79791 190.34416,469.31896 191.0992,468.78296 C 191.8448,468.25365 192.59111,467.7249 193.32112,467.17428 C 194.01941,466.64758 194.69586,466.09254 195.38324,465.55167 C 202.84105,459.16631 211.25092,453.49501 220.52572,450.15905 C 225.8202,448.44515 231.38376,448.21808 236.89826,448.09359 C 243.66973,447.99004 250.2063,449.74168 256.57767,451.85116 C 261.98513,453.93638 267.57518,455.45464 273.23284,456.67756 C 278.12344,457.57279 282.8759,459.06818 287.75028,460.01883 C 294.17279,461.48602 300.7117,462.27037 307.25072,462.99798 C 313.89139,463.90982 320.56018,464.55131 327.25409,464.88079 C 328.12693,464.86215 328.99977,464.84352 329.87261,464.82488 L 318.06176,473.41619 C 317.17478,473.40753 316.28781,473.39886 315.40083,473.39019 C 308.73875,472.9598 302.11194,472.20043 295.49213,471.34186 C 288.87261,470.59219 282.25154,469.82294 275.73814,468.3831 C 270.88729,467.35673 266.12586,465.93436 261.25476,464.98463 C 255.58635,463.68066 249.98831,462.11325 244.5563,460.01504 C 238.27216,457.96609 231.82757,456.39833 225.15996,456.68035 C 219.71129,456.91114 214.21048,457.23274 209.05064,459.17524 C 203.00761,461.78814 205.42792,460.86183 216.83305,454.22384 C 217.5486,453.80738 215.39729,455.05112 214.70859,455.51062 C 213.91645,456.03913 211.54089,457.84451 210.78469,458.47281 C 210.15196,458.9985 209.55137,459.56171 208.93471,460.10616 C 201.26509,466.45892 192.6643,472.00879 183.33354,475.52957 L 195.0588,466.47709 z" />
    <path
       style="fill:#ff9955;stroke:#d38d5f;stroke-width:1.05299997;stroke-linecap:butt;stroke-miterlimit:4;stroke-dasharray:none;stroke-opacity:1"
       id="path2398"
       d="M 239.10157,480.97776 C 243.94467,484.17293 249.28076,486.34688 254.7549,488.18125 C 261.67501,490.3021 268.81556,491.3732 276.03333,491.62205 C 283.96668,491.94004 291.27836,489.24248 298.51043,486.37291 C 303.27865,484.11319 307.26686,482.80282 312.55737,482.57806 C 319.84879,482.30947 326.94583,484.09446 333.98195,485.75563 C 341.99125,487.85807 350.05941,489.73332 358.19785,491.26395 C 366.85437,492.91059 375.64601,493.10944 384.42601,493.24499 C 394.71496,493.36577 405.00479,493.11387 415.29185,493.35119 C 425.21144,493.69643 435.13379,493.92636 445.05835,494.05727 C 452.18828,493.93666 459.38417,494.72141 466.41326,493.28339 C 467.15858,493.00668 467.9039,492.72997 468.64923,492.45326 L 457.08001,501.42512 C 456.30094,501.64176 455.52187,501.85841 454.7428,502.07505 C 447.69929,503.09991 440.57046,502.35896 433.47909,502.44495 C 423.57168,502.29369 413.66889,501.98883 403.76504,501.69004 C 393.47063,501.50766 383.17426,501.71557 372.8787,501.61021 C 364.00726,501.50142 355.13378,501.21631 346.39777,499.50015 C 338.26272,497.90955 330.19398,496.01892 322.17207,493.93256 C 315.15228,492.34323 308.05134,490.72468 300.79814,491.25377 C 295.82547,491.77571 291.65264,493.31017 287.10126,495.32801 C 279.76591,498.13239 272.27674,500.4512 264.30675,500.06239 C 256.99967,499.66429 249.75604,498.54689 242.76955,496.30395 C 237.13983,494.37153 231.68082,492.02605 226.57307,488.94278 L 239.10157,480.97776 z" />
    <path
       style="fill:#ff9955;stroke:#d38d5f;stroke-width:1.05299997;stroke-linecap:butt;stroke-miterlimit:4;stroke-dasharray:none;stroke-opacity:1"
       id="path2400"
       d="M 285.07902,511.00113 C 291.43465,511.42491 297.32093,514.0094 303.06712,516.55385 C 307.67899,518.72906 312.27985,521.12444 317.23238,522.45542 C 320.45851,523.32243 321.27685,523.25966 324.58951,523.57422 C 331.95682,523.35903 338.70428,520.11073 345.50782,517.60657 C 353.35424,514.79958 361.66943,514.72671 369.89171,514.93644 C 378.4843,515.18828 386.86145,517.02532 395.19936,518.93708 C 402.22097,520.64161 409.45679,520.76177 416.62868,521.19541 C 425.24412,521.60002 433.67547,523.43117 442.17408,524.73035 C 450.96931,525.65208 459.73318,526.77872 468.42727,528.40232 C 474.78863,529.98056 481.1813,531.23106 487.71462,531.75789 C 492.28925,532.12072 496.88112,531.99538 501.46247,532.11466 C 506.47508,532.24517 502.20797,532.35336 506.99055,532.13777 C 514.46515,531.0114 521.60076,528.30936 528.8026,526.09446 C 529.8723,525.72238 530.96392,525.40819 532.01169,524.97824 C 532.87225,524.62512 535.32086,523.28111 534.51721,523.74952 C 531.0379,525.77749 527.57282,527.84051 523.97992,529.65966 C 523.32949,529.98898 525.12293,528.75044 525.64508,528.24166 C 526.66002,527.25268 527.75963,525.81335 528.63965,524.71831 C 530.6054,521.76657 533.41713,519.6371 535.86922,517.14946 C 537.50855,515.39377 538.41708,513.14478 539.47128,511.02235 C 540.54557,509.0952 540.91568,506.9545 541.32058,504.82086 C 543.24964,497.08975 553.20222,494.59839 560.38259,492.77263 C 564.65287,491.69026 569.15523,491.88326 573.3651,490.57777 C 579.29193,487.25492 566.17882,494.70069 562.54835,496.69519 C 562.46983,496.73833 563.20504,496.36204 563.09711,495.75088 C 562.9852,495.11717 562.38576,494.77369 561.95828,494.39512 C 555.13516,491.76476 547.80559,490.48656 540.66192,488.98527 C 528.8667,486.49473 516.90017,484.99369 504.9814,483.24305 C 494.33274,482.01559 483.7707,480.20523 473.18288,478.56475 C 464.64502,477.11176 456.03232,476.19929 447.44989,475.07519 C 442.14268,474.28136 436.79157,473.73541 431.42285,473.87656 C 428.73333,473.71958 424.13335,475.23185 421.81191,473.48677 C 421.3732,473.15699 421.09472,472.6558 420.73612,472.24032 C 420.53638,471.61757 420.23384,471.01884 420.13689,470.37206 C 419.60857,466.84745 421.08452,463.05543 423.1772,460.29899 C 423.90698,459.33775 424.78501,458.49867 425.58891,457.5985 C 428.5034,455.20155 428.84986,454.71143 432.19102,452.81435 C 437.57089,449.75972 442.93908,446.67698 448.43751,443.84129 C 449.72042,443.17966 451.13549,442.81266 452.49961,442.34065 C 456.00767,441.1268 456.68288,441.00378 460.18364,440.05068 C 464.26431,439.05046 462.26788,439.47585 466.16867,438.75471 L 454.54333,447.54384 C 450.76427,448.30218 452.69838,447.87269 448.7441,448.84613 C 445.52316,449.76268 444.41156,450.01597 441.20308,451.19887 C 439.86281,451.693 436.11466,453.68901 437.22335,452.78828 C 439.76932,450.71988 442.8348,449.38831 445.60128,447.62567 C 447.8444,446.19648 436.66329,452.81339 438.94075,452.01945 C 435.5207,455.46947 432.10311,459.30398 433.3906,464.55477 C 433.61983,464.77588 433.79675,465.06921 434.0783,465.2181 C 436.28768,466.38649 440.80204,464.91415 443.2334,465.2746 C 448.61131,465.28866 453.97078,465.80627 459.27065,466.72609 C 467.80207,467.90443 476.35584,468.93188 484.85128,470.36269 C 495.38845,472.05094 505.91183,473.81784 516.50665,475.12401 C 528.46807,476.88666 540.46576,478.4563 552.31901,480.87347 C 557.09498,481.84311 561.86942,482.81658 566.61838,483.91297 C 568.63064,484.37754 570.76211,484.8095 572.68348,485.6223 C 573.33672,485.89865 573.93201,486.29575 574.55628,486.63247 C 574.93143,487.00814 575.35845,487.33835 575.68174,487.75949 C 580.18921,493.63128 565.88466,498.17094 561.64259,499.55429 C 557.37369,500.43541 552.96041,500.49013 548.75311,501.71691 C 548.04927,501.93211 547.33331,502.11108 546.64159,502.36252 C 546.07838,502.56726 544.48429,503.39742 544.99456,503.08318 C 548.75908,500.76482 552.62818,498.62028 556.41723,496.34223 C 556.72068,496.15979 555.73585,496.57714 555.45575,496.79372 C 554.89992,497.22349 554.86357,497.74748 554.68638,498.36817 C 554.14255,500.5548 554.05857,502.86806 552.97318,504.90538 C 551.89018,507.11286 550.93115,509.40741 549.53126,511.4343 C 549.11345,511.90732 548.16544,513.00898 547.7027,513.41285 C 547.31123,513.75452 546.85765,514.0186 546.45266,514.34412 C 544.78559,515.68408 543.45376,517.30361 542.10101,518.9524 C 541.13111,520.21741 538.90526,523.54313 537.62782,524.34868 C 530.61374,528.7717 524.94345,532.66795 517.40229,534.90874 C 510.1018,537.15488 502.83941,539.94659 495.20238,540.74914 C 488.76696,540.79472 482.32161,540.44815 475.89197,540.19555 C 469.36464,539.61466 463.02034,538.18694 456.66231,536.62286 C 447.95592,535.00008 439.17544,533.98102 430.37387,533.02561 C 421.93576,531.66159 413.54951,529.84577 404.97247,529.56539 C 397.70609,529.19453 390.38256,529.04002 383.3,527.17155 C 375.0851,525.21202 366.80212,523.46425 358.31516,523.31628 C 350.11199,523.23768 341.86716,523.54819 334.10669,526.52081 C 327.21254,529.05893 320.33148,532.20516 312.81933,531.92843 C 309.32635,531.48566 308.67791,531.54367 305.28739,530.55418 C 300.33249,529.10815 295.73266,526.69076 291.06397,524.54501 C 285.33268,522.10815 279.42278,519.61248 273.07409,519.72323 L 285.07902,511.00113 z" />
    <path
       style="fill:#ff9955;stroke:#d38d5f;stroke-width:1.05299997;stroke-linecap:butt;stroke-miterlimit:4;stroke-dasharray:none;stroke-opacity:1"
       id="path2402"
       d="M 486.15659,443.32705 C 490.47503,447.20864 495.98776,448.84979 501.5519,449.98085 C 507.88679,451.06969 514.0592,449.3736 520.18522,447.9672 C 525.49709,446.34966 530.9652,445.55458 536.50579,445.47395 C 541.51178,445.25559 546.32458,446.48595 551.04789,447.98565 C 555.64552,449.48203 560.36607,450.26803 565.16748,450.69541 C 570.28848,450.66085 575.38666,450.51272 580.50619,450.72372 C 581.82004,450.77829 583.13355,450.84021 584.44695,450.90452 L 572.37196,459.56332 C 571.10728,459.46694 569.84211,459.37647 568.57514,459.315 C 563.47576,459.0919 558.3868,459.31151 553.28724,459.15763 C 548.39841,458.6726 543.59754,457.77118 538.91342,456.25547 C 534.29525,454.85449 529.61709,453.76552 524.74378,454.07485 C 519.25637,454.33388 513.88383,455.2854 508.59686,456.78908 C 502.35964,458.19344 496.03778,459.56472 489.64232,458.25532 C 483.81532,456.94453 478.15262,454.98855 473.51805,451.07195 L 486.15659,443.32705 z" />
    <path
       style="fill:#ff9955;stroke:#d38d5f;stroke-width:1.05299997;stroke-linecap:butt;stroke-miterlimit:4;stroke-dasharray:none;stroke-opacity:1"
       id="path2404"
       d="M 575.98406,436.41709 C 567.90241,438.45906 559.45924,437.22912 551.31296,436.23855 C 542.80792,435.35408 534.64036,433.04141 526.65986,430.07235 C 522.21053,428.36076 517.95051,426.10652 513.17966,425.48954 C 512.45848,425.45409 511.73774,425.35873 511.0161,425.3832 C 509.33612,425.44015 507.36939,425.86001 505.73774,426.14028 C 502.37882,426.71724 499.02747,427.33027 495.66776,427.90305 C 488.90214,429.22114 482.0751,429.08868 475.24267,428.61152 C 469.30955,427.79707 463.36606,427.18096 457.38525,426.88009 C 452.64232,426.62083 447.93522,427.35788 443.2138,427.5563 C 440.25868,427.68049 439.2537,427.52143 436.32911,427.30375 C 430.24129,426.61761 424.99689,423.70139 419.80492,420.68497 C 416.11303,418.75378 412.88076,416.17732 409.7071,413.51732 C 406.8809,411.02853 406.17169,411.86675 403.01947,412.97401 C 399.97094,414.29325 396.8042,415.13365 393.59875,415.95119 C 388.54429,417.18382 383.46259,418.31409 378.30873,419.0433 C 373.34416,419.81671 368.38172,419.30853 363.4374,418.71579 C 358.61413,417.71388 353.7041,417.35511 348.82751,416.74532 C 343.61785,416.33494 338.49601,415.31122 333.32537,414.60481 C 328.54499,413.54482 323.68268,413.4624 318.81405,413.49676 C 314.2109,413.18045 309.60632,412.92725 304.99417,412.79271 C 300.26315,412.72552 295.55283,412.19689 290.86643,411.58117 C 287.61342,411.17771 285.62508,411.3368 283.29987,408.84367 C 281.98406,406.89415 281.68033,404.5804 281.45058,402.29757 C 281.4504,400.46617 281.32307,399.805 279.89154,398.67069 C 278.79129,398.13276 277.5741,397.95526 276.43737,397.52946 L 288.76035,389.16719 C 290.07695,389.54773 291.38679,389.99079 292.51412,390.7963 C 293.95959,392.1028 294.79961,393.43818 294.63245,395.4467 C 294.7489,397.38384 294.87682,399.4246 295.97786,401.08942 C 297.8185,402.83701 300.46033,402.71824 302.83905,403.11775 C 307.4886,403.72055 312.16525,404.15368 316.85593,404.23108 C 321.47154,404.38461 326.07868,404.67284 330.69216,404.86361 C 335.57829,404.88063 340.43328,405.23968 345.23437,406.20203 C 350.40909,406.93818 355.55969,407.82807 360.77142,408.2818 C 365.65118,408.83242 370.52428,409.39609 375.36183,410.25856 C 380.24488,410.79346 385.14473,411.10917 390.02189,410.26669 C 395.15385,409.46905 400.22938,408.34129 405.25196,407.02224 C 408.46732,406.1672 411.57605,405.04702 414.70347,403.9186 C 418.08645,402.93368 419.61302,403.29248 422.21958,405.70263 C 425.30221,408.31617 428.45481,410.83533 432.04561,412.74043 C 437.07273,415.66049 442.19853,418.35491 448.11162,418.85711 C 455.15096,419.22722 462.12609,418.1911 469.1721,418.40792 C 475.15849,418.71766 481.09195,419.41961 487.03859,420.15988 C 493.79775,420.58278 500.55022,420.52895 507.22497,419.19934 C 513.14638,418.15615 519.16793,416.47966 525.21115,417.04775 C 529.94627,418.00347 534.23455,420.17659 538.69236,421.97149 C 546.52747,424.91449 554.54618,427.18993 562.9145,428.01257 C 571.09241,428.91558 579.68402,430.07042 587.6236,427.26421 L 575.98406,436.41709 z" />
    <path
       style="fill:#ff9955;stroke:#d38d5f;stroke-width:1.05299997;stroke-linecap:butt;stroke-miterlimit:4;stroke-dasharray:none;stroke-opacity:1"
       id="path2406"
       d="M 309.45816,425.11079 C 309.11447,427.15819 308.38908,430.13025 310.15523,431.77774 C 310.48392,432.08436 310.9118,432.26336 311.29008,432.50616 C 315.14373,434.17724 319.31129,432.87277 323.13525,431.74334 C 328.21041,430.2494 333.32465,428.94711 338.53947,428.04638 C 343.61963,427.12265 348.73101,427.83979 353.74616,428.77646 C 355.99373,429.24606 354.90545,428.97133 357.01384,429.58925 L 344.83629,437.93924 C 342.8177,437.40337 343.85796,437.65705 341.7139,437.18484 C 336.80893,436.27694 331.82276,435.82727 326.88615,436.83583 C 321.69653,437.81739 316.60834,439.19856 311.53436,440.65746 C 307.28174,441.74446 302.85101,442.74622 298.82059,440.4107 C 298.35061,440.03062 297.82099,439.71427 297.41064,439.27047 C 295.4576,437.15816 295.81743,434.14823 296.06337,431.52745 L 309.45816,425.11079 z" />
    <path
       style="fill:#ff9955;stroke:#d38d5f;stroke-width:1.05299997;stroke-linecap:butt;stroke-miterlimit:4;stroke-dasharray:none;stroke-opacity:1"
       id="path2408"
       d="M 278.14124,507.23882 C 275.06786,510.3627 271.90098,513.36813 268.36627,515.96415 C 255.44322,523.75629 255.72739,525.26007 243.96354,525.65533 C 238.75022,525.84897 233.55075,525.74207 228.37745,525.05776 C 224.17842,524.51955 220.09277,523.28895 216.104,521.90104 C 212.43883,520.61424 209.07894,518.64889 205.64663,516.86232 C 202.91292,515.26565 200.19051,513.72647 197.31072,512.39624 C 194.79568,511.20358 191.98216,510.9095 189.2716,510.40838 C 185.19225,509.74184 181.09208,510.52973 177.10779,511.39687 C 171.6699,512.55251 166.79931,515.30214 161.78021,517.57443 C 157.94391,519.49504 153.98051,521.12131 149.6553,521.2688 C 146.17219,521.38634 142.75133,520.81382 139.32094,520.31649 C 136.41641,519.59058 133.77471,518.20157 131.27387,516.59446 C 131.5007,516.46784 129.50221,515.6192 129.76096,515.48426 C 143.06624,508.54555 145.32517,505.13373 142.25935,509.53776 C 141.75056,510.82554 141.79546,512.1873 141.26814,513.46341 C 137.15126,519.54483 129.65456,522.05273 123.54814,525.56456 C 120.78582,526.37951 117.89808,526.62543 115.03129,526.7038 L 126.95499,517.95371 C 129.72801,517.76458 132.56727,517.53327 135.10489,516.2997 C 113.43451,529.0201 123.87119,523.99824 127.65486,519.47322 C 128.70724,518.40435 128.43683,517.19503 128.73319,515.77663 C 130.10843,509.97092 139.32019,504.24394 143.77843,508.56924 C 146.10077,510.10442 148.61847,511.34055 151.38659,511.81819 C 154.73131,512.32307 158.09934,512.74783 161.49049,512.51755 C 165.65035,511.94715 169.46729,510.35447 173.21547,508.49715 C 178.26525,506.1967 183.23051,503.58095 188.74812,502.57196 C 192.91296,501.75682 197.165,501.10328 201.38652,501.94476 C 204.19651,502.47848 207.07184,502.86698 209.62836,504.2454 C 212.50083,505.60532 215.20708,507.23163 217.97613,508.78292 C 221.33543,510.55205 224.63346,512.48326 228.26604,513.65776 C 232.19674,514.95211 236.19653,516.11832 240.31902,516.60186 C 245.44816,517.17717 250.60087,517.2591 255.75631,517.00231 C 258.00331,516.86608 260.26165,516.7753 262.45373,516.2081 C 267.28218,514.95872 275.30056,508.73561 254.69218,521.35811 C 258.26241,518.92558 261.51479,516.12696 264.42335,512.92095 L 278.14124,507.23882 z" />
    <path
       style="fill:#ff9955;stroke:#d38d5f;stroke-width:1.05299997;stroke-linecap:butt;stroke-miterlimit:4;stroke-dasharray:none;stroke-opacity:1"
       id="path2410"
       d="M 134.34264,559.18597 C 140.22067,559.77259 146.19393,559.95904 151.96595,558.47885 C 153.38672,558.11451 154.76215,557.59197 156.16026,557.14853 C 163.37224,554.35819 169.96624,550.40632 177.14485,547.52799 C 184.34781,544.55221 191.82665,542.52041 199.45543,541.00466 C 208.16619,539.60165 217.06171,539.69905 225.85511,540.04222 C 234.44474,540.48123 242.88447,542.13552 251.22972,544.12302 C 257.60014,545.52496 263.68924,547.89044 269.96329,549.62219 C 274.54456,551.08299 278.9696,550.55468 283.53888,549.46903 C 286.72475,548.33588 289.81818,547.02692 293.12666,546.29374 C 296.56809,545.77127 300.04407,545.53718 303.49628,545.10436 C 308.37144,544.25305 313.19969,544.35142 318.06611,545.11846 C 323.10644,546.283 327.68082,548.73656 332.4711,550.60195 C 338.3231,552.39376 343.96327,554.74944 349.66446,556.95175 C 355.20225,559.24364 361.03185,560.65719 366.90649,561.75597 C 372.89465,562.91023 378.84226,564.25162 384.95064,564.50595 C 389.36073,564.22402 393.74876,563.07675 397.72389,561.12357 C 398.84843,560.57103 402.07862,558.64286 400.98443,559.2533 C 397.95792,560.94177 394.94599,562.65626 391.92678,564.35774 C 401.38805,557.90741 410.8124,550.91738 421.72672,547.1807 C 429.02513,545.40888 436.46224,546.0813 443.79676,547.17446 C 452.30921,548.67097 460.28665,552.08351 468.30861,555.16851 C 473.73184,557.33842 479.23496,559.32995 484.91338,560.7168 C 491.6252,561.9846 498.4964,562.08904 505.30496,561.99521 C 513.05837,561.81208 520.81164,561.32103 528.53068,560.57141 L 516.97247,569.12711 C 509.2297,569.75639 501.46849,570.23816 493.70257,570.44689 C 486.74675,570.52406 479.71308,570.46913 472.88019,569.00955 C 467.21922,567.51331 461.74422,565.44519 456.33691,563.20673 C 448.42335,560.10707 440.52544,556.72613 432.05949,555.45775 C 424.79595,554.52919 417.39888,553.97749 410.27904,556.12985 C 405.48267,558.01365 395.28242,563.50007 414.22986,553.02855 C 415.21946,552.48164 412.33649,554.26544 411.4051,554.9065 C 409.3806,556.29993 407.42821,557.7965 405.37595,559.1505 C 395.21474,565.10317 385.34876,572.78146 373.11135,573.00425 C 366.98722,572.55709 361.01382,571.19985 354.98791,570.07387 C 349.05746,568.90147 343.18229,567.42927 337.60606,565.04472 C 331.8967,562.79245 326.17905,560.58864 320.31812,558.75418 C 315.63482,556.89566 311.14542,554.44015 306.13809,553.53194 C 301.30839,552.93259 296.52907,553.07673 291.72049,553.87535 C 288.25077,554.26822 284.7608,554.5588 281.33966,555.28946 C 278.13228,556.12265 275.11333,557.521 271.89464,558.3196 C 266.92962,559.32212 262.80102,559.45708 257.90674,557.87431 C 251.73274,556.01363 245.69062,553.70692 239.37677,552.32045 C 231.10624,550.37241 222.74356,548.74715 214.22636,548.42921 C 205.47953,548.16057 196.63393,548.07987 187.99867,549.68906 C 180.39389,551.308 172.95012,553.46667 165.77201,556.48893 C 158.70515,559.46863 152.08002,563.40265 144.81179,565.90858 C 143.37625,566.31262 141.96087,566.7967 140.50519,567.1207 C 134.51366,568.4543 128.3642,568.12904 122.28894,567.77763 L 134.34264,559.18597 z" />
    <path
       style="fill:#ff9955;stroke:#d38d5f;stroke-width:1.05299997;stroke-linecap:butt;stroke-miterlimit:4;stroke-dasharray:none;stroke-opacity:1"
       id="path2412"
       d="M 418.62291,575.51935 C 427.69672,577.66755 436.91585,579.13836 446.11073,580.65974 C 455.10053,582.17489 464.09926,583.64892 473.01935,585.54187 C 478.56924,586.87155 484.10588,587.70129 489.80448,587.29381 C 494.77484,586.88513 499.70191,586.45701 504.54943,585.24877 C 509.15762,583.86871 513.83241,582.76679 518.66349,583.00551 C 521.86514,583.14493 524.92123,584.02918 528.02039,584.7368 C 530.7366,585.3824 533.47207,586.24973 536.28966,586.28445 C 538.12881,586.30711 538.78668,586.12857 540.60855,585.84984 C 542.90139,585.05617 545.3257,584.64575 547.60609,583.81542 C 551.43877,582.41988 564.77967,574.34642 540.06478,588.33799 C 542.82159,586.36929 544.09852,583.22252 545.39537,580.21883 C 546.73717,577.51039 547.01965,574.54072 547.40218,571.59405 C 547.85007,569.20643 548.43286,566.84648 549.00113,564.48526 C 549.16844,564.08045 549.11981,563.57424 549.29923,563.17937 C 549.37032,563.02291 549.7872,562.64226 549.94543,562.5506 C 554.34305,560.00314 558.76203,557.49275 563.17033,554.96382 C 563.94095,554.95464 564.66592,554.97121 565.38373,554.68936 L 553.53059,563.73013 C 552.8225,563.80975 552.11579,563.85646 551.52674,564.30356 C 555.6446,561.92483 559.77061,559.56014 563.88032,557.16735 C 563.99757,557.09909 563.63258,557.27818 563.5066,557.32854 C 562.99714,557.53219 563.21874,557.49586 562.67264,557.39901 C 562.45166,557.47782 562.75011,558.06521 562.45834,558.06944 C 561.76748,560.3822 561.17081,562.72156 560.64609,565.07757 C 560.18482,568.11119 560.15708,571.23456 558.82688,574.07374 C 557.39219,577.15649 556.32638,580.55025 553.79269,582.95316 C 543.23605,589.16831 539.53504,592.54 528.85177,594.61294 C 526.8734,594.79838 526.3011,594.93381 524.31844,594.79699 C 521.46641,594.60017 518.7121,593.69431 515.92871,593.11634 C 512.89711,592.43308 509.85818,591.75404 506.73916,591.62976 C 501.99971,591.66749 497.45321,592.83343 492.91133,594.11576 C 488.00439,595.16639 483.01807,595.59203 478.01767,595.95109 C 472.28265,596.13906 466.74748,595.13516 461.18423,593.76514 C 452.32929,591.85491 443.39539,590.36424 434.47009,588.82613 C 425.13253,587.25008 415.79519,585.66474 406.48714,583.92272 L 418.62291,575.51935 z" />
    <path
       style="fill:#ff9955;stroke:#d38d5f;stroke-width:1.05299997;stroke-linecap:butt;stroke-miterlimit:4;stroke-dasharray:none;stroke-opacity:1"
       id="path2414"
       d="M 558.69413,559.54906 C 559.65618,557.91137 559.13142,558.75878 560.28083,557.01457 L 573.82045,551.13064 C 572.63578,552.70469 573.14632,551.90904 572.2628,553.50066 L 558.69413,559.54906 z" />
    <path
       style="fill:#ff9955;stroke:#d38d5f;stroke-width:1.05299997;stroke-linecap:butt;stroke-miterlimit:4;stroke-dasharray:none;stroke-opacity:1"
       id="path2416"
       d="M 570.96286,545.43034 C 573.19066,543.53986 575.12674,541.34415 576.86839,539.0057 C 577.90333,537.4047 578.49267,535.55307 578.9312,533.70997 C 579.18483,531.68044 579.81161,529.74647 580.45699,527.81686 C 580.88888,526.60137 581.17815,525.34661 581.2978,524.06325 L 594.64562,517.39297 C 594.55518,518.79393 594.37127,520.17706 593.91495,521.51369 C 593.25022,523.38336 592.48614,525.24493 592.30041,527.23799 C 591.94049,529.25651 591.3165,531.21903 590.46222,533.08154 C 588.86528,535.58629 586.80016,537.76008 584.71178,539.85862 L 570.96286,545.43034 z" />
    <path
       style="fill:#ff9955;stroke:#d38d5f;stroke-width:1.05299997;stroke-linecap:butt;stroke-miterlimit:4;stroke-dasharray:none;stroke-opacity:1"
       id="path2418"
       d="M 359.1869,584.32666 C 357.49843,587.27295 355.87905,590.21095 353.28989,592.45531 C 341.04626,599.77483 339.13213,602.02021 327.11108,602.08259 C 320.84355,602.38808 314.77797,601.01314 308.74314,599.51509 C 303.04099,597.85537 297.35674,596.15984 291.62098,594.61615 C 285.7082,593.00981 279.54931,592.88646 273.46579,592.69172 C 261.81014,592.47916 250.3098,594.63307 238.89378,596.71481 C 222.06234,599.97542 205.02575,601.9003 187.9981,603.77388 C 177.16653,604.83437 182.44005,604.39373 172.17956,605.11985 L 183.36074,596.87975 C 193.46157,596.22214 188.25819,596.63266 198.96867,595.62041 C 216.07035,593.78546 233.14796,591.66914 250.02971,588.31297 C 261.62858,586.19634 273.31042,584.03966 285.15286,584.25407 C 291.36426,584.42855 297.64966,584.58334 303.65776,586.34893 C 309.35562,587.90646 314.97465,589.70907 320.66739,591.27719 C 326.66698,592.69336 332.70123,593.85117 338.90442,593.48033 C 341.51309,593.39535 344.02241,593.27124 346.57256,592.65992 C 351.84731,591.39546 359.87609,586.22234 339.56909,597.88068 C 340.03115,597.61074 340.53176,597.39798 340.95525,597.07085 C 343.13022,595.39072 344.27859,592.60905 345.61693,590.31158 L 359.1869,584.32666 z" />
    <path
       style="fill:#ff9955;stroke:#d38d5f;stroke-width:1.05299997;stroke-linecap:butt;stroke-miterlimit:4;stroke-dasharray:none;stroke-opacity:1"
       id="path2424"
       d="M 144.93218,588.45412 C 150.57685,586.3567 156.24886,584.38102 161.77794,581.99019 C 166.09779,580.03747 170.28499,577.80637 174.78257,576.26454 C 177.81709,575.22427 178.40211,575.20672 181.57872,574.54107 C 188.14992,573.39904 194.79645,573.0621 201.44744,573.35668 C 206.38995,573.52834 211.32233,573.98634 216.2614,574.15318 C 221.0584,574.60498 225.27955,573.52781 229.78245,572.03029 C 233.37596,570.45844 237.14064,569.70847 240.97572,569.07778 C 241.68592,568.98799 242.39611,568.89821 243.10631,568.80842 L 231.35225,577.59969 C 230.64161,577.70809 229.93098,577.81649 229.22034,577.9249 C 225.45532,578.58609 221.81533,579.63121 218.23258,580.97666 C 213.67902,582.35427 209.13979,583.21406 204.35594,582.71956 C 199.44471,582.43368 194.53581,582.11048 189.62093,581.87777 C 183.07168,581.64916 176.51058,582.01342 170.07022,583.30162 C 163.01083,585.03 156.9486,587.81023 150.428,590.95696 C 144.76255,593.34 138.96293,595.3636 133.22093,597.55255 L 144.93218,588.45412 z" />
    <path
       style="fill:#ff9955;stroke:#d38d5f;stroke-width:1.05299997;stroke-linecap:butt;stroke-miterlimit:4;stroke-dasharray:none;stroke-opacity:1"
       id="path2426"
       d="M 158.08856,481.92217 C 154.14474,482.334 150.18173,482.46836 146.22002,482.5776 C 141.57618,482.85375 136.9574,482.49874 132.32926,482.17628 C 127.44506,481.99179 122.58291,481.63771 117.80608,480.57559 C 113.40968,479.49514 109.13602,478.12678 104.97689,476.34156 C 101.91713,474.891 99.113185,473.05602 97.057125,470.34134 C 95.530208,467.76692 95.852598,465.06214 96.824942,462.37011 C 98.279151,458.92248 101.0647,456.36012 103.81745,453.93384 C 109.74587,448.8959 116.84688,445.8101 123.45052,441.70599 C 127.11804,439.42666 115.97591,446.03372 112.18722,448.1054 C 111.72979,448.35552 113.02619,447.48627 113.44568,447.17671 C 116.84953,444.70427 120.55514,442.69587 124.12306,440.47787 C 132.37258,435.36714 140.88938,430.7084 149.34365,425.94798 C 153.17085,423.72727 157.14338,421.76856 160.98974,419.58465 C 165.54563,417.06663 173.21018,412.80518 152.51883,424.5292 C 152.10222,424.76526 153.33441,424.02694 153.73405,423.76317 C 154.65592,423.15472 154.72092,423.07772 155.54375,422.42957 C 157.6396,420.54174 155.13711,419.089 153.57175,418.00824 C 150.73317,416.22199 147.65902,414.88299 144.84307,413.062 C 143.54175,412.29625 142.65651,411.01901 141.23093,410.49211 C 138.80916,409.83934 136.28958,409.79457 133.79879,409.72251 C 130.03998,409.52006 126.2461,409.29282 122.51607,408.75378 C 120.42318,408.4089 121.43327,408.63575 119.48243,408.08853 L 131.65944,399.69992 C 133.5008,400.12399 132.54164,399.9345 134.53951,400.25512 C 138.2658,400.69071 142.01783,401.0016 145.76873,401.08697 C 148.42747,401.18802 151.14326,401.28476 153.6426,402.29729 C 154.9949,403.06362 156.03467,404.18232 157.31329,405.06311 C 160.11409,406.92241 163.22374,408.2309 166.03101,410.08252 C 168.26774,411.71227 170.8187,413.8144 169.27979,416.8121 C 168.4027,417.73009 167.40674,418.57524 166.30465,419.22231 C 160.73696,422.4913 155.1755,425.71206 149.53478,428.82918 C 145.68142,430.92168 141.79148,432.94758 137.9841,435.12434 C 133.52482,437.6217 123.75914,443.33621 143.60952,431.69596 C 144.29325,431.29502 142.22923,432.4761 141.55141,432.88696 C 140.9133,433.27376 140.30022,433.70084 139.6626,434.08843 C 139.05383,434.45848 138.42957,434.80241 137.81305,435.1594 C 134.30531,437.41508 130.63204,439.39581 127.16172,441.71211 C 121.13578,446.42353 131.76718,438.19598 112.00671,450.96501 C 108.46418,453.25416 119.29405,446.71601 122.94589,444.6056 C 123.5717,444.24394 121.68672,445.31828 121.08493,445.71865 C 120.80577,445.90438 117.67541,448.23425 117.41723,448.42597 C 114.71919,450.65296 111.9104,453.04685 110.26335,456.18164 C 109.23193,458.30403 108.55555,460.57554 109.7928,462.77556 C 111.6878,465.27966 114.37401,466.87621 117.18834,468.19421 C 121.29109,469.89754 125.50948,471.20925 129.84124,472.20578 C 134.5878,473.13803 139.39749,473.44547 144.22479,473.65567 C 148.83349,473.95732 153.43803,474.17913 158.05732,473.92175 C 162.04692,473.78709 166.04142,473.60738 169.99756,473.04143 L 158.08856,481.92217 z" />
    <path
       style="fill:#ff9955;stroke:#d38d5f;stroke-width:1.05299997;stroke-linecap:butt;stroke-miterlimit:4;stroke-dasharray:none;stroke-opacity:1"
       id="path2430"
       d="M 427.10157,380.97776 C 431.77074,384.47341 437.17795,386.83203 442.46757,389.21883 C 447.93849,391.77672 453.80932,393.26239 459.74257,394.25484 C 465.92095,395.24754 472.11362,394.26294 478.12621,392.80026 C 483.32099,391.24489 488.71647,390.7172 494.0415,389.81913 C 500.73987,388.88683 507.41649,387.78995 514.13415,387.00302 C 521.59454,386.3831 529.08015,386.04054 536.55787,385.66597 C 543.43867,385.25769 550.33267,385.64957 557.21408,385.85144 C 563.2798,386.29087 569.35036,386.58142 575.39863,387.22284 C 578.58316,387.34564 581.35125,388.65457 583.42579,391.03659 C 583.67454,391.32121 583.92328,391.60583 584.17203,391.89045 L 571.4735,399.55555 C 571.23137,399.27867 570.98924,399.00179 570.74712,398.72492 C 568.78068,396.68594 566.29155,395.85147 563.47467,395.68976 C 557.47803,395.01745 551.45005,394.7133 545.42775,394.35999 C 538.60942,394.14454 531.77913,393.74964 524.96097,394.18367 C 517.47382,394.58442 509.97565,394.93377 502.51282,395.66246 C 495.78898,396.50473 489.08981,397.53397 482.39489,398.57897 C 477.09153,399.45614 471.75328,400.14277 466.56417,401.60228 C 460.38588,402.91093 454.07769,403.77378 447.79268,402.61873 C 441.80494,401.48484 435.90496,399.87838 430.39023,397.22875 C 424.98287,394.74717 419.52256,392.27586 414.57307,388.94278 L 427.10157,380.97776 z" />
    <path
       style="fill:#ff9955;stroke:#d38d5f;stroke-width:1.05299997;stroke-linecap:butt;stroke-miterlimit:4;stroke-dasharray:none;stroke-opacity:1"
       id="path2432"
       d="M 232.8086,435.71797 C 228.66808,435.28031 224.51179,435.01639 220.35289,434.83625 C 215.95836,434.72613 211.55688,434.55033 207.16619,434.80552 C 204.81871,434.97744 202.40803,435.11656 200.1316,435.77856 C 198.05816,436.38154 196.1177,437.4786 194.21297,438.46573 C 197.76459,436.43877 201.29955,434.38233 204.86785,432.38487 C 205.44355,432.06261 203.74789,433.08267 203.19267,433.43907 C 202.20295,434.07436 201.26604,434.79373 200.24808,435.38271 C 195.57252,438.0879 190.86308,440.73411 186.17058,443.40981 L 197.69204,434.18788 C 193.96386,436.37769 190.25334,438.59785 186.50749,440.7573 C 186.02735,441.0341 187.43042,440.14349 187.89237,439.83731 C 188.98901,439.11049 190.04626,438.32056 191.18156,437.65573 C 195.99377,434.83774 200.84467,432.08632 205.67622,429.30162 C 210.12325,427.18887 213.99079,426.18235 218.96446,426.14975 C 223.4046,425.99487 227.84956,426.08073 232.28864,426.25058 C 236.46157,426.46567 240.62202,426.88892 244.79906,427.00639 L 232.8086,435.71797 z" />
    <text
       xml:space="preserve"
       style="font-size:103.26618195000000355px;font-style:normal;font-variant:normal;font-weight:normal;font-stretch:normal;fill:#241c1c;fill-opacity:1;stroke:none;stroke-width:1px;stroke-linecap:butt;stroke-linejoin:miter;stroke-opacity:1;font-family:Mashq;-inkscape-font-specification:Mashq"
       x="-505.78165"
       y="481.6366"
       id="text2403"
       transform="matrix(0.721365,-0.3748605,1.1521405,0.7875459,0,0)"><tspan
         sodipodi:role="line"
         id="tspan2405"
         x="-505.78165"
         y="481.6366">SPAM!</tspan></text>
    <text
       transform="matrix(0.721365,-0.3748605,1.1521405,0.7875459,0,0)"
       id="text2409"
       y="563.10724"
       x="-393.3082"
       style="font-size:103.26618195000000355px;font-style:normal;font-variant:normal;font-weight:normal;font-stretch:normal;fill:#241c1c;fill-opacity:1;stroke:none;stroke-width:1px;stroke-linecap:butt;stroke-linejoin:miter;stroke-opacity:1;font-family:Mashq;-inkscape-font-specification:Mashq"
       xml:space="preserve"><tspan
         y="563.10724"
         x="-393.3082"
         id="tspan2411"
         sodipodi:role="line">SPAM!</tspan></text>
  </g>
</svg>
